<?xml version="1.0" encoding="UTF-8"?>
<svg id="Capa_2" data-name="Capa 2" xmlns="http://www.w3.org/2000/svg" viewBox="0 0 33.8 33.77">
  <defs>
    <style>
      .cls-1 {
        fill: #fe1493;
      }
    </style>
  </defs>
  <g id="Capa_1-2" data-name="Capa 1">
    <path class="cls-1" d="M20.4,0h-7.77C4.8.7.7,4.8,0,12.63v7.77c-.34,14.42,21.91,16.86,29.6,8.83C37.31,21.19,34.5-.31,20.4,0ZM15.56,19.43c-.57.41-1.18,5.5-5.85,3.88-.42-.31,3.92-5.48,3.87-7.3-.06-2.68-4.19-3.35-3.87-6.29,3.12-1.88,7.6,3.68,8.71,2.89.51-.36.47-4.3,4.88-2.89,1.13.99-3.49,5.08-3.56,6.31-.1,1.76,4.21,5.06,4.54,7.27-3.15,2.3-8.32-4.17-8.72-3.88Z"/>
  </g>
</svg>